<svg xmlns="http://www.w3.org/2000/svg" xmlns:xlink="http://www.w3.org/1999/xlink" version="1.1" x="0px" y="0px" viewBox="0 0 64 80" enable-background="new 0 0 64 64" xml:space="preserve"><path d="M28.7226563,17.7045898c-0.0883789,0-0.1777344-0.012207-0.2670898-0.0366211  c-0.5322266-0.1474609-0.8442383-0.6982422-0.6972656-1.2304688c0.2197266-0.7939453,0.4990234-1.5800781,0.8310547-2.3374023  c0.2226563-0.5058594,0.8125-0.7333984,1.3178711-0.5141602c0.5053711,0.222168,0.7358398,0.8120117,0.5141602,1.3178711  c-0.2939453,0.6694336-0.5415039,1.3647461-0.7353516,2.0668945C29.5634766,17.4135742,29.1611328,17.7045898,28.7226563,17.7045898  z"/><path d="M30.690918,12.809082c-0.1777344,0-0.3579102-0.0473633-0.5205078-0.1469727  c-0.4711914-0.2880859-0.6196289-0.9033203-0.331543-1.3745117c0.1269531-0.2075195,0.2573242-0.4130859,0.3925781-0.6171875  c0.3037109-0.4604492,0.9238281-0.5883789,1.3857422-0.28125c0.4604492,0.3046875,0.5864258,0.925293,0.28125,1.3857422  c-0.121582,0.1835938-0.2392578,0.3686523-0.3535156,0.5556641C31.3564453,12.6391602,31.027832,12.809082,30.690918,12.809082z"/><path d="M52.890625,55.8339844C52.7197266,55.4990234,52.3759766,55.2880859,52,55.2880859H41.5634766V24.9155273  c0-0.3618164-0.1953125-0.6953125-0.5107422-0.8720703c-0.3164063-0.1772461-0.7011719-0.1699219-1.0107422,0.019043L33,28.3677368  v-1.4378052c1.5014038-0.3197632,2.99646-1.3220215,3.9238281-2.7062988c1.1630859-1.7373047,1.3359375-3.847168,0.484375-5.940918  l-0.296875-0.7207031c-0.8183594-1.9824219-1.9384766-4.6972656-1.5742188-6.0839844  c0.140625-0.5341797-0.1787109-1.0810547-0.7119141-1.2216797c-0.5332031-0.1376953-1.0800781,0.1787109-1.2216797,0.7128906  c-0.5361328,2.0371094,0.6298828,4.862793,1.6591797,7.355957l0.2919922,0.7109375  c0.7607422,1.8701172,0.2607422,3.2480469-0.2929688,4.074707C34.6694336,23.994812,33.7999878,24.5794067,33,24.857666v-1.6125488  c0-0.5522461-0.4477539-1-1-1s-1,0.4477539-1,1v1.7300415c-1.4943848-0.15625-2.6381226-0.6305542-3.4243164-1.4815063  c-1.3549805-1.4658203-1.4790039-3.7163086-1.3447266-5.3461914c0.4663086-5.6479492,2.7055664-8.8828125,6.1542969-12.2294922  c0.034668,0.5083008,0.105957,0.9990234,0.1821289,1.4379883c0.0947266,0.543457,0.6123047,0.9042969,1.15625,0.8139648  c0.5439453-0.0947266,0.9091797-0.6123047,0.8144531-1.1567383c-0.3740234-2.152832-0.0722656-2.9873047,0.2460938-3.3081055  c0.3808594-0.3833008,0.3886719-1,0.0175781-1.3925781c-0.3730469-0.3930664-0.9882813-0.4179688-1.3916016-0.059082  c-4.8154297,4.2910156-8.5483398,8.1733398-9.1723633,15.7294922c-0.1674805,2.0297852,0.0209961,4.8691406,1.8691406,6.8686523  C27.276062,26.1159668,28.9197388,26.8374023,31,27.0072632v2.583252l-8.0854492,4.9431763  c-0.2973633,0.1816406-0.4785156,0.5048828-0.4785156,0.8530273v19.9013672H12  c-0.3623047,0-0.6958008,0.1958008-0.8725586,0.5117188c-0.1767578,0.3164063-0.1689453,0.703125,0.0205078,1.0117188  l2.8945313,4.7119141C14.2246094,61.8193359,14.546875,62,14.8945313,62h33.6845703  c0.3203125,0,0.6210938-0.1533203,0.8095703-0.4125977l3.4208984-4.7119141  C53.0302734,56.5712891,53.0615234,56.1689453,52.890625,55.8339844z M34.7441406,29.6451416l1.4892578-0.9104614v8.7765503  c0,0.4257813-0.3339844,0.7719727-0.7441406,0.7719727c-0.4111328,0-0.7451172-0.3461914-0.7451172-0.7719727V29.6451416z   M31.2553711,44.3374023v-9.9477539v-2.6115723l1.4887695-0.9101563v6.6433105v10.6323242  c0,0.4257813-0.3339844,0.7719727-0.7441406,0.7719727c-0.4106445,0-0.7446289-0.3461914-0.7446289-0.7719727V44.3374023z   M27.7666016,33.9110718l1.4887695-0.9102173v1.3887939v9.9477539c0,0.4257813-0.3339844,0.7724609-0.7441406,0.7724609  c-0.4106445,0-0.7446289-0.3466797-0.7446289-0.7724609V33.9110718z M24.4360352,35.9472656l1.3305664-0.8134766v9.2036133  c0,1.5288086,1.2314453,2.7724609,2.7446289,2.7724609c0.2596436,0,0.5059204-0.0483398,0.7441406-0.1166992v1.1503906  c0,1.5283203,1.2314453,2.7719727,2.7446289,2.7719727c1.5126953,0,2.7441406-1.2436523,2.7441406-2.7719727v-7.9772339  c0.2385254,0.0684814,0.4851685,0.1168823,0.7451172,0.1168823c1.5126953,0,2.7441406-1.2436523,2.7441406-2.7719727v-9.8867188  c0-0.0355835-0.0166016-0.0656128-0.0202026-0.1002197l1.3502808-0.8255615v28.5893555H24.4360352V35.9472656z M48.0693359,60  H15.4536133l-1.6655273-2.7119141h9.6479492h17.1274414h9.4746094L48.0693359,60z"/><text x="0" y="79" fill="#000000" font-size="5px" font-weight="bold" font-family="'Helvetica Neue', Helvetica, Arial-Unicode, Arial, Sans-serif">Created by Frey Wazza</text><text x="0" y="84" fill="#000000" font-size="5px" font-weight="bold" font-family="'Helvetica Neue', Helvetica, Arial-Unicode, Arial, Sans-serif">from the Noun Project</text></svg>